<svg width="128" height="128" viewBox="0 0 128 128" fill="none" xmlns="http://www.w3.org/2000/svg">
<g clip-path="url(#clip0_1427_2806)">
<circle cx="64" cy="64" r="58" fill="#3E0B17"/>
<path d="M64 0C28.712 0 0 28.712 0 64C0 99.288 28.712 128 64 128C99.288 128 128 99.288 128 64C128 28.712 99.288 0 64 0ZM32 60C32 55.68 34.32 51.912 37.752 49.8L29.488 43.112C27.768 41.72 27.496 39.2 28.888 37.488C30.272 35.776 32.8 35.504 34.512 36.888L51.536 50.664C54.376 52.96 56 56.36 56 60C56 66.616 50.616 72 44 72C37.384 72 32 66.616 32 60ZM86.896 102.76C86.112 103.584 85.056 104 84 104C83.008 104 82.016 103.632 81.24 102.896C71.576 93.696 56.424 93.704 46.752 102.896C45.16 104.408 42.624 104.368 41.096 102.752C39.576 101.152 39.632 98.616 41.24 97.096C53.992 84.96 73.992 84.944 86.752 97.096C88.36 98.624 88.424 101.16 86.896 102.76ZM98.512 43.112L90.24 49.8C93.68 51.912 96 55.68 96 60C96 66.616 90.616 72 84 72C77.384 72 72 66.616 72 60C72 56.352 73.624 52.952 76.456 50.664L93.488 36.888C95.208 35.496 97.728 35.76 99.112 37.48C100.496 39.2 100.232 41.72 98.512 43.112Z" fill="#D0526E"/>
</g>
<defs>
<clipPath id="clip0_1427_2806">
<rect width="128" height="128" fill="white"/>
</clipPath>
</defs>
</svg>
