<svg width="128" height="128" viewBox="0 0 128 128" fill="none" xmlns="http://www.w3.org/2000/svg">
<g clip-path="url(#clip0_1427_2800)">
<circle cx="64" cy="64" r="58" fill="#5C2700"/>
<path d="M64 0C28.712 0 0 28.712 0 64C0 99.288 28.712 128 64 128C99.288 128 128 99.288 128 64C128 28.712 99.288 0 64 0ZM32 48C32 43.592 35.592 40 40 40C44.408 40 48 43.592 48 48C48 52.408 44.408 56 40 56C35.592 56 32 52.408 32 48ZM92.28 97.376C91.496 98.16 90.472 98.544 89.448 98.544C88.424 98.544 87.4 98.152 86.616 97.376C74.52 85.28 53.448 85.28 41.36 97.376C39.8 98.936 37.264 98.936 35.704 97.376C34.144 95.816 34.144 93.28 35.704 91.72C43.272 84.168 53.312 80 64 80C74.688 80 84.728 84.168 92.28 91.72C93.84 93.28 93.84 95.816 92.28 97.376ZM88 56C83.592 56 80 52.408 80 48C80 43.592 83.592 40 88 40C92.408 40 96 43.592 96 48C96 52.408 92.408 56 88 56Z" fill="#F4812F"/>
</g>
<defs>
<clipPath id="clip0_1427_2800">
<rect width="128" height="128" fill="white"/>
</clipPath>
</defs>
</svg>
