<svg width="128" height="128" viewBox="0 0 128 128" fill="none" xmlns="http://www.w3.org/2000/svg">
<g clip-path="url(#clip0_1427_2349)">
<circle cx="64" cy="64" r="58" fill="#365222"/>
<path d="M64 0C28.712 0 0 28.712 0 64C0 99.288 28.712 128 64 128C99.288 128 128 99.288 128 64C128 28.712 99.288 0 64 0ZM87.92 32.08C96.744 32.08 103.92 39.256 103.92 48.08C103.92 50.288 102.128 52.08 99.92 52.08C97.712 52.08 95.92 50.288 95.92 48.08C95.92 43.672 92.336 40.08 87.92 40.08C83.504 40.08 79.92 43.672 79.92 48.08C79.92 50.288 78.128 52.08 75.92 52.08C73.712 52.08 71.92 50.288 71.92 48.08C71.92 39.256 79.096 32.08 87.92 32.08ZM39.92 32.08C48.744 32.08 55.92 39.256 55.92 48.08C55.92 50.288 54.128 52.08 51.92 52.08C49.712 52.08 47.92 50.288 47.92 48.08C47.92 43.672 44.328 40.08 39.92 40.08C35.512 40.08 31.92 43.672 31.92 48.08C31.92 50.288 30.128 52.08 27.92 52.08C25.712 52.08 23.92 50.288 23.92 48.08C23.92 39.256 31.096 32.08 39.92 32.08ZM63.92 112.08C42.52 112.08 23.536 97.72 17.752 77.168C17.408 75.96 17.648 74.672 18.408 73.672C19.16 72.672 20.344 72.08 21.6 72.08H106.24C107.488 72.08 108.672 72.664 109.424 73.664C110.176 74.664 110.424 75.952 110.088 77.168C104.296 97.72 85.312 112.08 63.92 112.08Z" fill="#86DD5A"/>
</g>
<defs>
<clipPath id="clip0_1427_2349">
<rect width="128" height="128" fill="white"/>
</clipPath>
</defs>
</svg>
