<svg width="128" height="128" viewBox="0 0 128 128" fill="none" xmlns="http://www.w3.org/2000/svg">
<g clip-path="url(#clip0_1427_2788)">
<circle cx="64" cy="64" r="58" fill="#755C00"/>
<path d="M63.5039 0C28.4894 0 0 28.712 0 64C0 99.288 28.4894 128 63.5039 128C98.5183 128 127.008 99.288 127.008 64C127.008 28.712 98.5183 0 63.5039 0ZM31.7519 48C31.7519 43.592 35.3161 40 39.6899 40C44.0638 40 47.6279 43.592 47.6279 48C47.6279 52.408 44.0638 56 39.6899 56C35.3161 56 31.7519 52.408 31.7519 48ZM83.3488 96H43.6589C41.468 96 39.6899 94.208 39.6899 92C39.6899 89.792 41.468 88 43.6589 88H83.3488C85.5397 88 87.3178 89.792 87.3178 92C87.3178 94.208 85.5397 96 83.3488 96ZM87.3178 56C82.944 56 79.3798 52.408 79.3798 48C79.3798 43.592 82.944 40 87.3178 40C91.6917 40 95.2558 43.592 95.2558 48C95.2558 52.408 91.6917 56 87.3178 56Z" fill="#FFDD63"/>
</g>
<defs>
<clipPath id="clip0_1427_2788">
<rect width="127.008" height="128" fill="white"/>
</clipPath>
</defs>
</svg>
