<svg width="128" height="128" viewBox="0 0 128 128" fill="none" xmlns="http://www.w3.org/2000/svg">
<g clip-path="url(#clip0_1427_2363)">
<circle cx="64" cy="64" r="58" fill="#436E2D"/>
<path d="M64 0C28.712 0 0 28.712 0 64C0 99.288 28.712 128 64 128C99.288 128 128 99.288 128 64C128 28.712 99.288 0 64 0ZM28 48C28 41.384 33.384 36 40 36C46.616 36 52 41.384 52 48C52 54.616 46.616 60 40 60C33.384 60 28 54.616 28 48ZM92.28 92.28C84.728 99.832 74.688 104 64 104C53.312 104 43.272 99.832 35.712 92.28C34.152 90.72 34.152 88.184 35.712 86.624C37.272 85.064 39.808 85.064 41.368 86.624C53.456 98.72 74.528 98.72 86.624 86.624C88.184 85.064 90.72 85.064 92.28 86.624C93.84 88.184 93.84 90.72 92.28 92.28ZM88 60C81.384 60 76 54.616 76 48C76 41.384 81.384 36 88 36C94.616 36 100 41.384 100 48C100 54.616 94.616 60 88 60Z" fill="#BEEDA6"/>
</g>
<defs>
<clipPath id="clip0_1427_2363">
<rect width="128" height="128" fill="white"/>
</clipPath>
</defs>
</svg>
