<svg width="32" height="32" viewBox="0 0 32 32" fill="none" xmlns="http://www.w3.org/2000/svg">
<path d="M24.4 7.61336C23.88 7.09336 23.04 7.09336 22.52 7.61336L16 14.12L9.47996 7.60002C8.95996 7.08002 8.11996 7.08002 7.59996 7.60002C7.07996 8.12002 7.07996 8.96002 7.59996 9.48002L14.12 16L7.59996 22.52C7.07996 23.04 7.07996 23.88 7.59996 24.4C8.11996 24.92 8.95996 24.92 9.47996 24.4L16 17.88L22.52 24.4C23.04 24.92 23.88 24.92 24.4 24.4C24.92 23.88 24.92 23.04 24.4 22.52L17.88 16L24.4 9.48002C24.9066 8.97336 24.9066 8.12002 24.4 7.61336Z" fill="#0079C2"/>
</svg>
