<svg width="18" height="18" viewBox="0 0 18 18" fill="none" xmlns="http://www.w3.org/2000/svg">
<path d="M2.10449 2H8.10449C8.65449 2 9.10449 1.55 9.10449 1C9.10449 0.45 8.65449 0 8.10449 0H2.10449C1.00449 0 0.104492 0.9 0.104492 2V16C0.104492 17.1 1.00449 18 2.10449 18H8.10449C8.65449 18 9.10449 17.55 9.10449 17C9.10449 16.45 8.65449 16 8.10449 16H2.10449V2Z" fill="white" fill-opacity="0.7"/>
<path d="M17.7545 8.65L14.9645 5.86C14.6445 5.54 14.1045 5.76 14.1045 6.21V8H7.10449C6.55449 8 6.10449 8.45 6.10449 9C6.10449 9.55 6.55449 10 7.10449 10H14.1045V11.79C14.1045 12.24 14.6445 12.46 14.9545 12.14L17.7445 9.35C17.9445 9.16 17.9445 8.84 17.7545 8.65Z" fill="white" fill-opacity="0.7"/>
</svg>
