<svg width="14" height="15" viewBox="0 0 14 15" fill="none" xmlns="http://www.w3.org/2000/svg">
<path d="M6.75 4.38945C8.3025 4.38945 9.5625 5.64945 9.5625 7.20195C9.5625 7.48883 9.50625 7.76445 9.4275 8.0232L11.1488 9.74445C11.9306 9.05258 12.5494 8.18633 12.9375 7.19633C11.9644 4.73258 9.5625 2.9832 6.75 2.9832C6.03562 2.9832 5.34937 3.0957 4.7025 3.30383L5.92312 4.52445C6.1875 4.4457 6.46313 4.38945 6.75 4.38945ZM1.92375 2.11133L1.13063 2.91008L2.63812 4.41758C1.72125 5.13758 0.995625 6.09383 0.5625 7.20195C1.53562 9.67133 3.9375 11.4207 6.75 11.4207C7.605 11.4207 8.42062 11.252 9.17437 10.9595L11.1038 12.8888L11.8969 12.0957L1.92375 2.11133ZM6.75 10.0145C5.1975 10.0145 3.9375 8.75445 3.9375 7.20195C3.9375 6.76883 4.03875 6.3582 4.21312 5.9982L5.09625 6.88133C5.07938 6.98258 5.0625 7.08945 5.0625 7.20195C5.0625 8.1357 5.81625 8.88945 6.75 8.88945C6.8625 8.88945 6.96375 8.87258 7.07062 8.85008L7.95375 9.7332C7.58813 9.9132 7.18313 10.0145 6.75 10.0145ZM8.42063 7.01633C8.33625 6.22883 7.7175 5.6157 6.93563 5.53133L8.42063 7.01633Z" fill="#323232"/>
</svg>
