<svg width="14" height="14" viewBox="0 0 14 14" fill="none" xmlns="http://www.w3.org/2000/svg">
<g clip-path="url(#clip0_1848_1301)">
<path d="M7 2.78125C4.1875 2.78125 1.78562 4.53063 0.8125 7C1.78562 9.46938 4.1875 11.2188 7 11.2188C9.8125 11.2188 12.2144 9.46938 13.1875 7C12.2144 4.53063 9.8125 2.78125 7 2.78125ZM7 9.8125C5.4475 9.8125 4.1875 8.5525 4.1875 7C4.1875 5.4475 5.4475 4.1875 7 4.1875C8.5525 4.1875 9.8125 5.4475 9.8125 7C9.8125 8.5525 8.5525 9.8125 7 9.8125ZM7 5.3125C6.06625 5.3125 5.3125 6.06625 5.3125 7C5.3125 7.93375 6.06625 8.6875 7 8.6875C7.93375 8.6875 8.6875 7.93375 8.6875 7C8.6875 6.06625 7.93375 5.3125 7 5.3125Z" fill="#005C9E"/>
</g>
<defs>
<clipPath id="clip0_1848_1301">
<rect width="13.5" height="13.5" fill="white" transform="translate(0.25 0.25)"/>
</clipPath>
</defs>
</svg>
