<svg width="24" height="24" viewBox="0 0 24 24" fill="none" xmlns="http://www.w3.org/2000/svg">
<path d="M604.986 455.099c-9.205 12.47-15.724 26.715-19.729 42.439-2.685 10.251-4.016 20.787-4.016 31.471 0 28.49 9.5 55.945 26.567 77.471 14.541 18.398 33.69 31.448 55.216 37.683 9.637 2.685 19.433 4.153 29.070 4.153 30.583 0 58.482-13.346 78.518-34.862 20.173-21.527 32.643-51.359 32.643-84.15 0.148-49.129-26.863-92.911-69.006-111.753-15.588-7.122-32.347-10.388-50.608-8.602-18.842 1.627-37.239 8.454-52.975 20.036-7.43 5.632-14.097 11.719-19.593 18.25-2.071 2.526-4.153 4.892-6.087 7.862zM934.298 225.965c0.74-5.791-1.331-11.139-6.087-16.464-32.199-36.511-171.554-52.531-235.509-52.69-44.225 0-180.019 10.684-227.499 44.965-8.317 5.939-12.914 12.163-14.108 19.445 0 0.444-0.148 0.887-0.148 1.331-0.148 0.592 0 1.775 0.148 2.822 6.986 60.848 19.149 82.955 52.679 118.42 39.777 42.598 96.324 48.094 109.227 48.822 27.159-22.403 77.175-22.699 79.394-22.699 1.331 0 5.348 0.148 10.536 0.444 14.256 1.035 41.108 4.608 60.996 16.93 2.822 1.616 5.495 3.55 8.010 5.632 13.062-0.592 69.166-6.076 109.386-48.538 33.382-35.612 45.693-57.719 52.975-118.42zM403.687 521.51c-8.42 11.423-14.404 24.462-18.079 38.866-2.446 9.375-3.664 19.035-3.664 28.82 0 26.089 8.704 51.234 24.326 70.94 13.312 16.85 30.845 28.809 50.563 34.52 8.829 2.446 17.795 3.8 26.635 3.8 28.001 0 53.544-12.22 71.885-31.937 7.509-7.999 13.767-17.294 18.66-27.489-0.58-0.694-1.206-1.354-1.775-2.071-21.39-26.977-33.2-61.292-33.2-96.575 0-13.312 1.684-26.51 5.006-39.242 0.034-0.148 0.091-0.273 0.125-0.421-6.713-5.393-14.097-10.012-22.107-13.585-14.279-6.531-29.628-9.523-46.342-7.896-17.271 1.502-34.111 7.76-48.526 18.352-6.781 5.166-12.902 10.741-17.931 16.714-1.911 2.31-3.812 4.494-5.575 7.202zM581.531 432.732c-27.898-4.369-75.139-17.397-111.662-56.513-33.917-35.863-50.54-62.18-59.13-122.994-49.914 5.655-108.078 16.805-135.077 36.306-7.612 5.439-11.822 11.139-12.914 17.806 0 0.398-0.125 0.808-0.125 1.217-0.137 0.546 0 1.627 0.125 2.571 6.394 55.728 17.533 75.981 48.253 108.464 36.42 38.992 88.201 44.032 100.033 44.703 24.86-20.514 70.667-20.799 72.693-20.799 1.229 0 4.904 0.148 9.66 0.41 13.039 0.956 37.649 4.221 55.854 15.508 2.583 1.49 5.029 3.254 7.339 5.154 0.546-0.023 1.274-0.068 1.98-0.114 2.981-5.404 6.144-10.65 9.751-15.599 2.412-3.595 4.756-6.428 6.667-8.738l0.922-1.092 0.102-0.125 0.091-0.125c1.718-2.025 3.527-4.039 5.439-6.042zM219.864 582.287c-7.703 10.422-13.153 22.335-16.509 35.476-2.23 8.567-3.345 17.374-3.345 26.317 0 23.814 7.942 46.763 22.209 64.751 12.151 15.394 28.16 26.317 46.16 31.528 8.055 2.23 16.236 3.459 24.303 3.459 25.554 0 48.89-11.162 65.638-29.15 5.837-6.224 10.832-13.312 14.962-21.015-0.853-1.024-1.752-1.98-2.571-3.026-19.968-25.156-30.982-57.162-30.982-90.055 0-12.402 1.582-24.713 4.665-36.591 0.262-0.978 0.614-1.911 0.876-2.879-5.359-3.982-11.139-7.441-17.351-10.206-13.016-5.951-27.045-8.681-42.303-7.202-15.747 1.377-31.141 7.066-44.294 16.748-6.201 4.722-11.787 9.796-16.384 15.269-1.729 2.105-3.459 4.085-5.074 6.576zM376.153 503.765c-26.294-4.767-67.083-17.522-99.066-51.758-31.471-33.291-46.888-57.697-54.83-114.187-44.635 5.313-95.346 15.417-119.273 32.677-6.952 4.961-10.798 10.172-11.787 16.259 0 0.364-0.125 0.728-0.125 1.104-0.114 0.501 0 1.49 0.125 2.367 5.837 50.859 15.997 69.348 44.043 99.009 33.257 35.612 80.521 40.198 91.318 40.823 22.71-18.751 64.512-18.99 66.378-18.99 1.115 0 4.46 0.114 8.806 0.375 11.913 0.865 34.361 3.846 50.995 14.143 1.9 1.104 3.709 2.389 5.439 3.743 2.697-4.87 5.575-9.603 8.829-14.063 2.276-3.391 4.46-6.030 6.246-8.169l0.819-1.013 0.114-0.125 0.102-0.114c0.592-0.705 1.252-1.388 1.866-2.082z" fill="#0079C2"/>
</svg>
