<svg width="24" height="24" viewBox="0 0 24 24" fill="none" xmlns="http://www.w3.org/2000/svg">
<path d="M15.9762 14.4716H15.1862L14.9062 14.2016C16.1062 12.8016 16.7262 10.8916 16.3862 8.86157C15.9162 6.08157 13.5962 3.86157 10.7962 3.52157C6.56621 3.00157 3.00621 6.56157 3.52621 10.7916C3.86621 13.5916 6.08621 15.9116 8.86621 16.3816C10.8962 16.7216 12.8062 16.1016 14.2062 14.9016L14.4762 15.1816V15.9716L18.7262 20.2216C19.1362 20.6316 19.8062 20.6316 20.2162 20.2216C20.6262 19.8116 20.6262 19.1416 20.2162 18.7316L15.9762 14.4716ZM9.97621 14.4716C7.48621 14.4716 5.47621 12.4616 5.47621 9.97157C5.47621 7.48157 7.48621 5.47157 9.97621 5.47157C12.4662 5.47157 14.4762 7.48157 14.4762 9.97157C14.4762 12.4616 12.4662 14.4716 9.97621 14.4716Z" fill="black" fill-opacity="0.5"/>
</svg>
